<mxfile host="app.diagrams.net" modified="2023-02-14T15:08:02.641Z" agent="5.0 (Windows NT 10.0; Win64; x64) AppleWebKit/537.36 (KHTML, like Gecko) Chrome/110.0.0.0 Safari/537.36" etag="8-G_ElIVoypsAPCuTt5E" version="20.8.17" type="github">
  <diagram name="Page-1" id="6x6TZbseE-QPOk2Tuv7f">
    <mxGraphModel dx="1235" dy="691" grid="1" gridSize="10" guides="1" tooltips="1" connect="1" arrows="1" fold="1" page="1" pageScale="1" pageWidth="2336" pageHeight="1654" math="0" shadow="0">
      <root>
        <mxCell id="0" />
        <mxCell id="1" parent="0" />
        <mxCell id="Vfu94GZBrMM-B6HO3JxG-1" value="Add a habit" style="ellipse;whiteSpace=wrap;html=1;fillColor=#FF8000;strokeColor=#000066;fontColor=#000099;" parent="1" vertex="1">
          <mxGeometry x="245" y="75" width="120" height="80" as="geometry" />
        </mxCell>
        <mxCell id="Vfu94GZBrMM-B6HO3JxG-2" value="Delete a habit" style="ellipse;whiteSpace=wrap;html=1;fillColor=#FF8000;strokeColor=#000066;fontColor=#000099;" parent="1" vertex="1">
          <mxGeometry x="245" y="165" width="120" height="80" as="geometry" />
        </mxCell>
        <mxCell id="Vfu94GZBrMM-B6HO3JxG-3" value="Mark habit as done&amp;nbsp; today" style="ellipse;whiteSpace=wrap;html=1;fillColor=#FF8000;strokeColor=#000066;fontColor=#000099;" parent="1" vertex="1">
          <mxGeometry x="245" y="255" width="120" height="80" as="geometry" />
        </mxCell>
        <mxCell id="Vfu94GZBrMM-B6HO3JxG-4" value="Add a comment" style="ellipse;whiteSpace=wrap;html=1;fillColor=#FF8000;strokeColor=#000066;fontColor=#000099;" parent="1" vertex="1">
          <mxGeometry x="475" y="255" width="120" height="80" as="geometry" />
        </mxCell>
        <mxCell id="Vfu94GZBrMM-B6HO3JxG-5" value="Update habit history" style="ellipse;whiteSpace=wrap;html=1;fillColor=#FF8000;strokeColor=#000066;fontColor=#000099;" parent="1" vertex="1">
          <mxGeometry x="475" y="85" width="120" height="80" as="geometry" />
        </mxCell>
        <mxCell id="Vfu94GZBrMM-B6HO3JxG-6" value="View habit history" style="ellipse;whiteSpace=wrap;html=1;fillColor=#FF8000;strokeColor=#000066;fontColor=#000099;" parent="1" vertex="1">
          <mxGeometry x="245" y="435" width="120" height="80" as="geometry" />
        </mxCell>
        <mxCell id="Vfu94GZBrMM-B6HO3JxG-7" value="View one user&#39;s habits" style="ellipse;whiteSpace=wrap;html=1;fillColor=#FF8000;strokeColor=#000066;fontColor=#000099;" parent="1" vertex="1">
          <mxGeometry x="245" y="555" width="120" height="80" as="geometry" />
        </mxCell>
        <mxCell id="Vfu94GZBrMM-B6HO3JxG-8" value="View single habit check-in" style="ellipse;whiteSpace=wrap;html=1;fillColor=#FF8000;strokeColor=#000066;fontColor=#000099;" parent="1" vertex="1">
          <mxGeometry x="475" y="435" width="120" height="80" as="geometry" />
        </mxCell>
        <mxCell id="Vfu94GZBrMM-B6HO3JxG-9" value="List all users" style="ellipse;whiteSpace=wrap;html=1;fillColor=#FF8000;strokeColor=#000066;fontColor=#000099;" parent="1" vertex="1">
          <mxGeometry x="475" y="555" width="120" height="80" as="geometry" />
        </mxCell>
        <mxCell id="Vfu94GZBrMM-B6HO3JxG-10" style="html=1;exitX=1;exitY=0.3333333333333333;exitPerimeter=0;entryX=0;entryY=0.5;jettySize=auto;orthogonalLoop=1;fillColor=#f8cecc;strokeColor=#FF8000;curved=1;fontColor=#000099;" parent="1" source="Vfu94GZBrMM-B6HO3JxG-15" target="Vfu94GZBrMM-B6HO3JxG-1" edge="1">
          <mxGeometry relative="1" as="geometry" />
        </mxCell>
        <mxCell id="Vfu94GZBrMM-B6HO3JxG-11" style="html=1;exitX=1;exitY=0.3333333333333333;exitPerimeter=0;entryX=0;entryY=0.5;jettySize=auto;orthogonalLoop=1;curved=1;fontColor=#000099;strokeColor=#FF8000;" parent="1" source="Vfu94GZBrMM-B6HO3JxG-15" target="Vfu94GZBrMM-B6HO3JxG-2" edge="1">
          <mxGeometry relative="1" as="geometry" />
        </mxCell>
        <mxCell id="Vfu94GZBrMM-B6HO3JxG-12" style="rounded=0;html=1;exitX=1;exitY=0.3333333333333333;exitPerimeter=0;entryX=0;entryY=0.5;jettySize=auto;orthogonalLoop=1;fontColor=#000099;strokeColor=#FF8000;" parent="1" source="Vfu94GZBrMM-B6HO3JxG-15" target="Vfu94GZBrMM-B6HO3JxG-26" edge="1">
          <mxGeometry relative="1" as="geometry" />
        </mxCell>
        <mxCell id="Vfu94GZBrMM-B6HO3JxG-13" style="edgeStyle=none;curved=1;html=1;exitX=1;exitY=0.3333333333333333;exitPerimeter=0;entryX=0;entryY=0.5;jettySize=auto;orthogonalLoop=1;strokeColor=#FF8000;fontColor=#000099;" parent="1" source="Vfu94GZBrMM-B6HO3JxG-15" target="Vfu94GZBrMM-B6HO3JxG-3" edge="1">
          <mxGeometry relative="1" as="geometry" />
        </mxCell>
        <mxCell id="Vfu94GZBrMM-B6HO3JxG-14" style="edgeStyle=none;curved=1;html=1;exitX=1;exitY=0.3333333333333333;exitPerimeter=0;jettySize=auto;orthogonalLoop=1;strokeColor=#FF8000;entryX=0;entryY=0.5;fontColor=#000099;" parent="1" source="Vfu94GZBrMM-B6HO3JxG-15" target="Vfu94GZBrMM-B6HO3JxG-6" edge="1">
          <mxGeometry relative="1" as="geometry" />
        </mxCell>
        <mxCell id="Vfu94GZBrMM-B6HO3JxG-15" value="User" style="shape=umlActor;verticalLabelPosition=bottom;labelBackgroundColor=#ffffff;verticalAlign=top;html=1;strokeWidth=4;fillColor=#FF8000;strokeColor=#000066;fontColor=#000099;" parent="1" vertex="1">
          <mxGeometry x="130" y="195" width="30" height="60" as="geometry" />
        </mxCell>
        <mxCell id="Vfu94GZBrMM-B6HO3JxG-16" style="rounded=0;html=1;exitX=0;exitY=0.3333333333333333;exitPerimeter=0;entryX=1;entryY=0.5;jettySize=auto;orthogonalLoop=1;fontColor=#000099;strokeColor=#FF8000;" parent="1" source="Vfu94GZBrMM-B6HO3JxG-20" target="Vfu94GZBrMM-B6HO3JxG-4" edge="1">
          <mxGeometry relative="1" as="geometry" />
        </mxCell>
        <mxCell id="Vfu94GZBrMM-B6HO3JxG-17" style="edgeStyle=none;curved=1;html=1;exitX=0;exitY=0.3333333333333333;exitPerimeter=0;entryX=1;entryY=0.5;jettySize=auto;orthogonalLoop=1;strokeColor=#FF8000;fontColor=#000099;" parent="1" source="Vfu94GZBrMM-B6HO3JxG-20" target="Vfu94GZBrMM-B6HO3JxG-26" edge="1">
          <mxGeometry relative="1" as="geometry" />
        </mxCell>
        <mxCell id="Vfu94GZBrMM-B6HO3JxG-18" style="edgeStyle=none;html=1;exitX=0;exitY=0.3333333333333333;exitPerimeter=0;entryX=1;entryY=1;jettySize=auto;orthogonalLoop=1;strokeColor=#FF8000;rounded=1;fontColor=#000099;" parent="1" source="Vfu94GZBrMM-B6HO3JxG-20" target="Vfu94GZBrMM-B6HO3JxG-6" edge="1">
          <mxGeometry relative="1" as="geometry">
            <Array as="points">
              <mxPoint x="635" y="545" />
            </Array>
          </mxGeometry>
        </mxCell>
        <mxCell id="Vfu94GZBrMM-B6HO3JxG-19" style="edgeStyle=none;rounded=1;html=1;exitX=0;exitY=0.3333333333333333;exitPerimeter=0;entryX=1;entryY=0.5;jettySize=auto;orthogonalLoop=1;strokeColor=#FF8000;fontSize=14;fontColor=#000099;" parent="1" source="Vfu94GZBrMM-B6HO3JxG-20" target="Vfu94GZBrMM-B6HO3JxG-9" edge="1">
          <mxGeometry relative="1" as="geometry">
            <Array as="points">
              <mxPoint x="655" y="545" />
            </Array>
          </mxGeometry>
        </mxCell>
        <mxCell id="Vfu94GZBrMM-B6HO3JxG-20" value="Coach" style="shape=umlActor;verticalLabelPosition=bottom;labelBackgroundColor=#ffffff;verticalAlign=top;html=1;strokeWidth=4;fillColor=#FF8000;strokeColor=#000066;fontColor=#000099;" parent="1" vertex="1">
          <mxGeometry x="670" y="345" width="30" height="60" as="geometry" />
        </mxCell>
        <mxCell id="Vfu94GZBrMM-B6HO3JxG-21" value="&amp;lt;&amp;lt; extend &amp;gt;&amp;gt;" style="endArrow=open;endSize=12;dashed=1;html=1;exitX=0;exitY=0.5;entryX=1;entryY=0.5;fontColor=#000099;strokeColor=#FF8000;" parent="1" source="Vfu94GZBrMM-B6HO3JxG-8" target="Vfu94GZBrMM-B6HO3JxG-6" edge="1">
          <mxGeometry width="160" relative="1" as="geometry">
            <mxPoint x="495.33333333333326" y="305.33333333333326" as="sourcePoint" />
            <mxPoint x="375.33333333333326" y="305.33333333333326" as="targetPoint" />
          </mxGeometry>
        </mxCell>
        <mxCell id="Vfu94GZBrMM-B6HO3JxG-22" value="Habit tracker - use cases" style="shape=umlFrame;whiteSpace=wrap;html=1;strokeWidth=1;fillColor=none;width=200;height=30;fontColor=#000099;strokeColor=#000066;" parent="1" vertex="1">
          <mxGeometry x="220" y="40" width="410" height="610" as="geometry" />
        </mxCell>
        <mxCell id="Vfu94GZBrMM-B6HO3JxG-23" value="&amp;lt;&amp;lt; include &amp;gt;&amp;gt;" style="endArrow=open;endSize=12;dashed=1;html=1;exitX=1;exitY=0;entryX=0;entryY=1;fontColor=#000099;strokeColor=#FF8000;" parent="1" source="Vfu94GZBrMM-B6HO3JxG-3" target="Vfu94GZBrMM-B6HO3JxG-5" edge="1">
          <mxGeometry width="160" relative="1" as="geometry">
            <mxPoint x="495" y="395" as="sourcePoint" />
            <mxPoint x="485" y="125" as="targetPoint" />
          </mxGeometry>
        </mxCell>
        <mxCell id="Vfu94GZBrMM-B6HO3JxG-24" value="&amp;lt;&amp;lt; extend &amp;gt;&amp;gt;" style="endArrow=open;endSize=12;dashed=1;html=1;exitX=0.5;exitY=1;entryX=0.5;entryY=0;fontColor=#000099;strokeColor=#FF8000;" parent="1" source="Vfu94GZBrMM-B6HO3JxG-4" target="Vfu94GZBrMM-B6HO3JxG-8" edge="1">
          <mxGeometry x="0.2727" y="10" width="160" relative="1" as="geometry">
            <mxPoint x="555" y="225" as="sourcePoint" />
            <mxPoint x="555" y="175" as="targetPoint" />
            <mxPoint as="offset" />
          </mxGeometry>
        </mxCell>
        <mxCell id="Vfu94GZBrMM-B6HO3JxG-25" value="&amp;lt;&amp;lt; extend &amp;gt;&amp;gt;" style="endArrow=open;endSize=12;dashed=1;html=1;entryX=1;entryY=0.5;exitX=0;exitY=0.5;fontColor=#000099;strokeColor=#FF8000;" parent="1" source="Vfu94GZBrMM-B6HO3JxG-4" target="Vfu94GZBrMM-B6HO3JxG-3" edge="1">
          <mxGeometry x="-0.0909" width="160" relative="1" as="geometry">
            <mxPoint x="425" y="335" as="sourcePoint" />
            <mxPoint x="555" y="355" as="targetPoint" />
            <mxPoint as="offset" />
          </mxGeometry>
        </mxCell>
        <mxCell id="Vfu94GZBrMM-B6HO3JxG-26" value="List habits" style="ellipse;whiteSpace=wrap;html=1;fillColor=#FF8000;strokeColor=#000066;fontColor=#000099;" parent="1" vertex="1">
          <mxGeometry x="245" y="345" width="120" height="80" as="geometry" />
        </mxCell>
        <mxCell id="Vfu94GZBrMM-B6HO3JxG-27" value="&amp;lt;&amp;lt; include &amp;gt;&amp;gt;" style="endArrow=open;endSize=12;dashed=1;html=1;exitX=1;exitY=0.5;entryX=0;entryY=0.5;fontColor=#000099;strokeColor=#FF8000;" parent="1" source="Vfu94GZBrMM-B6HO3JxG-2" target="Vfu94GZBrMM-B6HO3JxG-5" edge="1">
          <mxGeometry width="160" relative="1" as="geometry">
            <mxPoint x="357" y="277" as="sourcePoint" />
            <mxPoint x="513" y="163" as="targetPoint" />
          </mxGeometry>
        </mxCell>
        <mxCell id="Vfu94GZBrMM-B6HO3JxG-28" value="&amp;lt;&amp;lt; include &amp;gt;&amp;gt;" style="endArrow=open;endSize=12;dashed=1;html=1;exitX=1;exitY=0.5;entryX=0;entryY=0;fontColor=#000099;strokeColor=#FF8000;" parent="1" source="Vfu94GZBrMM-B6HO3JxG-1" target="Vfu94GZBrMM-B6HO3JxG-5" edge="1">
          <mxGeometry width="160" relative="1" as="geometry">
            <mxPoint x="375" y="215" as="sourcePoint" />
            <mxPoint x="495" y="135" as="targetPoint" />
          </mxGeometry>
        </mxCell>
        <mxCell id="Vfu94GZBrMM-B6HO3JxG-29" value="&amp;lt;&amp;lt; include &amp;gt;&amp;gt;" style="endArrow=open;endSize=12;dashed=1;html=1;exitX=0.5;exitY=0;entryX=0.5;entryY=1;fontColor=#000099;strokeColor=#FF8000;" parent="1" source="Vfu94GZBrMM-B6HO3JxG-4" target="Vfu94GZBrMM-B6HO3JxG-5" edge="1">
          <mxGeometry width="160" relative="1" as="geometry">
            <mxPoint x="357" y="277" as="sourcePoint" />
            <mxPoint x="503" y="163" as="targetPoint" />
          </mxGeometry>
        </mxCell>
        <mxCell id="Vfu94GZBrMM-B6HO3JxG-30" value="&amp;lt;&amp;lt; extend &amp;gt;&amp;gt;" style="endArrow=open;endSize=12;dashed=1;html=1;exitX=1;exitY=0.5;entryX=0;entryY=0.5;fontColor=#000099;strokeColor=#FF8000;" parent="1" source="Vfu94GZBrMM-B6HO3JxG-7" target="Vfu94GZBrMM-B6HO3JxG-9" edge="1">
          <mxGeometry width="160" relative="1" as="geometry">
            <mxPoint x="485" y="485" as="sourcePoint" />
            <mxPoint x="375" y="485" as="targetPoint" />
          </mxGeometry>
        </mxCell>
        <mxCell id="Vfu94GZBrMM-B6HO3JxG-31" value="&amp;lt;&amp;lt; extend &amp;gt;&amp;gt;" style="endArrow=open;endSize=12;dashed=1;html=1;exitX=0.5;exitY=1;entryX=0.5;entryY=0;fontColor=#000099;strokeColor=#FF8000;" parent="1" source="Vfu94GZBrMM-B6HO3JxG-6" target="Vfu94GZBrMM-B6HO3JxG-7" edge="1">
          <mxGeometry width="160" relative="1" as="geometry">
            <mxPoint x="375" y="605" as="sourcePoint" />
            <mxPoint x="425" y="565" as="targetPoint" />
          </mxGeometry>
        </mxCell>
        <mxCell id="aFN2-VFNgICGjjfd_nI_-1" value="Artwork&amp;nbsp;tracker - use cases" style="shape=umlFrame;whiteSpace=wrap;html=1;strokeWidth=1;fillColor=none;width=200;height=30;fontColor=#000099;strokeColor=#000066;" vertex="1" parent="1">
          <mxGeometry x="890" y="150" width="500" height="1180" as="geometry" />
        </mxCell>
        <mxCell id="aFN2-VFNgICGjjfd_nI_-45" style="edgeStyle=none;rounded=0;orthogonalLoop=1;jettySize=auto;html=1;exitX=0.5;exitY=0.5;exitDx=0;exitDy=0;exitPerimeter=0;entryX=0.395;entryY=1.029;entryDx=0;entryDy=0;strokeColor=#ff8000;strokeWidth=1;endArrow=classic;endFill=1;entryPerimeter=0;" edge="1" parent="1" source="aFN2-VFNgICGjjfd_nI_-2" target="aFN2-VFNgICGjjfd_nI_-9">
          <mxGeometry relative="1" as="geometry" />
        </mxCell>
        <mxCell id="aFN2-VFNgICGjjfd_nI_-54" style="edgeStyle=none;rounded=0;orthogonalLoop=1;jettySize=auto;html=1;exitX=0.5;exitY=0.5;exitDx=0;exitDy=0;exitPerimeter=0;strokeColor=#ff8000;strokeWidth=1;endArrow=classic;endFill=1;entryX=0.022;entryY=0.225;entryDx=0;entryDy=0;entryPerimeter=0;" edge="1" parent="1" source="aFN2-VFNgICGjjfd_nI_-2" target="aFN2-VFNgICGjjfd_nI_-17">
          <mxGeometry relative="1" as="geometry">
            <mxPoint x="710" y="752" as="targetPoint" />
          </mxGeometry>
        </mxCell>
        <mxCell id="aFN2-VFNgICGjjfd_nI_-56" style="edgeStyle=none;rounded=0;orthogonalLoop=1;jettySize=auto;html=1;exitX=0.5;exitY=0.5;exitDx=0;exitDy=0;exitPerimeter=0;strokeColor=#ff8000;strokeWidth=1;endArrow=classic;endFill=1;" edge="1" parent="1" source="aFN2-VFNgICGjjfd_nI_-2" target="aFN2-VFNgICGjjfd_nI_-15">
          <mxGeometry relative="1" as="geometry" />
        </mxCell>
        <mxCell id="aFN2-VFNgICGjjfd_nI_-2" value="Driver" style="shape=umlActor;verticalLabelPosition=bottom;labelBackgroundColor=#ffffff;verticalAlign=top;html=1;strokeWidth=4;fillColor=#FF8000;strokeColor=#000066;fontColor=#000099;" vertex="1" parent="1">
          <mxGeometry x="820" y="1023" width="30" height="60" as="geometry" />
        </mxCell>
        <mxCell id="aFN2-VFNgICGjjfd_nI_-46" style="edgeStyle=none;rounded=0;orthogonalLoop=1;jettySize=auto;html=1;exitX=0.5;exitY=0.5;exitDx=0;exitDy=0;exitPerimeter=0;strokeColor=#ff8000;strokeWidth=1;endArrow=classic;endFill=1;" edge="1" parent="1" source="aFN2-VFNgICGjjfd_nI_-3" target="aFN2-VFNgICGjjfd_nI_-18">
          <mxGeometry relative="1" as="geometry" />
        </mxCell>
        <mxCell id="aFN2-VFNgICGjjfd_nI_-47" style="edgeStyle=none;rounded=0;orthogonalLoop=1;jettySize=auto;html=1;exitX=0.5;exitY=0.5;exitDx=0;exitDy=0;exitPerimeter=0;strokeColor=#ff8000;strokeWidth=1;endArrow=classic;endFill=1;" edge="1" parent="1" source="aFN2-VFNgICGjjfd_nI_-3" target="aFN2-VFNgICGjjfd_nI_-33">
          <mxGeometry relative="1" as="geometry" />
        </mxCell>
        <mxCell id="aFN2-VFNgICGjjfd_nI_-48" style="edgeStyle=none;rounded=0;orthogonalLoop=1;jettySize=auto;html=1;exitX=0.5;exitY=0.5;exitDx=0;exitDy=0;exitPerimeter=0;strokeColor=#ff8000;strokeWidth=1;endArrow=classic;endFill=1;entryX=0.966;entryY=0.302;entryDx=0;entryDy=0;entryPerimeter=0;" edge="1" parent="1" source="aFN2-VFNgICGjjfd_nI_-3" target="aFN2-VFNgICGjjfd_nI_-44">
          <mxGeometry relative="1" as="geometry">
            <mxPoint x="1250" y="530" as="targetPoint" />
          </mxGeometry>
        </mxCell>
        <mxCell id="aFN2-VFNgICGjjfd_nI_-49" style="edgeStyle=none;rounded=0;orthogonalLoop=1;jettySize=auto;html=1;exitX=0.5;exitY=0.5;exitDx=0;exitDy=0;exitPerimeter=0;entryX=1;entryY=0;entryDx=0;entryDy=0;strokeColor=#ff8000;strokeWidth=1;endArrow=classic;endFill=1;" edge="1" parent="1" source="aFN2-VFNgICGjjfd_nI_-3" target="aFN2-VFNgICGjjfd_nI_-40">
          <mxGeometry relative="1" as="geometry" />
        </mxCell>
        <mxCell id="aFN2-VFNgICGjjfd_nI_-50" style="edgeStyle=none;rounded=0;orthogonalLoop=1;jettySize=auto;html=1;exitX=0.5;exitY=0.5;exitDx=0;exitDy=0;exitPerimeter=0;entryX=1;entryY=0;entryDx=0;entryDy=0;strokeColor=#ff8000;strokeWidth=1;endArrow=classic;endFill=1;" edge="1" parent="1" source="aFN2-VFNgICGjjfd_nI_-3" target="aFN2-VFNgICGjjfd_nI_-41">
          <mxGeometry relative="1" as="geometry" />
        </mxCell>
        <mxCell id="aFN2-VFNgICGjjfd_nI_-3" value="Administrator" style="shape=umlActor;verticalLabelPosition=bottom;labelBackgroundColor=#ffffff;verticalAlign=top;html=1;strokeWidth=4;fillColor=#FF8000;strokeColor=#000066;fontColor=#000099;" vertex="1" parent="1">
          <mxGeometry x="1470" y="270" width="30" height="65" as="geometry" />
        </mxCell>
        <mxCell id="aFN2-VFNgICGjjfd_nI_-68" style="edgeStyle=none;rounded=0;orthogonalLoop=1;jettySize=auto;html=1;exitX=0.5;exitY=0.5;exitDx=0;exitDy=0;exitPerimeter=0;strokeColor=#ff8000;strokeWidth=1;endArrow=classic;endFill=1;" edge="1" parent="1" source="aFN2-VFNgICGjjfd_nI_-5" target="aFN2-VFNgICGjjfd_nI_-11">
          <mxGeometry relative="1" as="geometry">
            <Array as="points">
              <mxPoint x="1140" y="904" />
            </Array>
          </mxGeometry>
        </mxCell>
        <mxCell id="aFN2-VFNgICGjjfd_nI_-5" value="Lending institution" style="shape=umlActor;verticalLabelPosition=bottom;labelBackgroundColor=#ffffff;verticalAlign=top;html=1;strokeWidth=4;fillColor=#FF8000;strokeColor=#000066;fontColor=#000099;" vertex="1" parent="1">
          <mxGeometry x="1470" y="871" width="30" height="65" as="geometry" />
        </mxCell>
        <mxCell id="aFN2-VFNgICGjjfd_nI_-64" style="edgeStyle=none;rounded=0;orthogonalLoop=1;jettySize=auto;html=1;exitX=0.5;exitY=0.5;exitDx=0;exitDy=0;exitPerimeter=0;entryX=1;entryY=0.5;entryDx=0;entryDy=0;strokeColor=#ff8000;strokeWidth=1;endArrow=classic;endFill=1;" edge="1" parent="1" source="aFN2-VFNgICGjjfd_nI_-6" target="aFN2-VFNgICGjjfd_nI_-31">
          <mxGeometry relative="1" as="geometry" />
        </mxCell>
        <mxCell id="aFN2-VFNgICGjjfd_nI_-65" style="edgeStyle=none;rounded=0;orthogonalLoop=1;jettySize=auto;html=1;exitX=0.5;exitY=0.5;exitDx=0;exitDy=0;exitPerimeter=0;entryX=1;entryY=0.5;entryDx=0;entryDy=0;strokeColor=#ff8000;strokeWidth=1;endArrow=classic;endFill=1;" edge="1" parent="1" source="aFN2-VFNgICGjjfd_nI_-6" target="aFN2-VFNgICGjjfd_nI_-29">
          <mxGeometry relative="1" as="geometry" />
        </mxCell>
        <mxCell id="aFN2-VFNgICGjjfd_nI_-66" style="edgeStyle=none;rounded=0;orthogonalLoop=1;jettySize=auto;html=1;exitX=0.5;exitY=0.5;exitDx=0;exitDy=0;exitPerimeter=0;entryX=1;entryY=0.5;entryDx=0;entryDy=0;strokeColor=#ff8000;strokeWidth=1;endArrow=classic;endFill=1;" edge="1" parent="1" source="aFN2-VFNgICGjjfd_nI_-6" target="aFN2-VFNgICGjjfd_nI_-30">
          <mxGeometry relative="1" as="geometry" />
        </mxCell>
        <mxCell id="aFN2-VFNgICGjjfd_nI_-67" style="edgeStyle=none;rounded=0;orthogonalLoop=1;jettySize=auto;html=1;exitX=0.5;exitY=0.5;exitDx=0;exitDy=0;exitPerimeter=0;strokeColor=#ff8000;strokeWidth=1;endArrow=classic;endFill=1;" edge="1" parent="1" source="aFN2-VFNgICGjjfd_nI_-6" target="aFN2-VFNgICGjjfd_nI_-32">
          <mxGeometry relative="1" as="geometry" />
        </mxCell>
        <mxCell id="aFN2-VFNgICGjjfd_nI_-69" style="edgeStyle=none;rounded=0;orthogonalLoop=1;jettySize=auto;html=1;exitX=0.5;exitY=0.5;exitDx=0;exitDy=0;exitPerimeter=0;entryX=0.5;entryY=1;entryDx=0;entryDy=0;strokeColor=#ff8000;strokeWidth=1;endArrow=classic;endFill=1;" edge="1" parent="1" source="aFN2-VFNgICGjjfd_nI_-6" target="aFN2-VFNgICGjjfd_nI_-11">
          <mxGeometry relative="1" as="geometry">
            <Array as="points">
              <mxPoint x="1160" y="1030" />
            </Array>
          </mxGeometry>
        </mxCell>
        <mxCell id="aFN2-VFNgICGjjfd_nI_-6" value="Borrower institution" style="shape=umlActor;verticalLabelPosition=bottom;labelBackgroundColor=#ffffff;verticalAlign=top;html=1;strokeWidth=4;fillColor=#FF8000;strokeColor=#000066;fontColor=#000099;" vertex="1" parent="1">
          <mxGeometry x="1470" y="1004" width="30" height="65" as="geometry" />
        </mxCell>
        <mxCell id="aFN2-VFNgICGjjfd_nI_-60" style="edgeStyle=none;rounded=0;orthogonalLoop=1;jettySize=auto;html=1;exitX=0.5;exitY=0.5;exitDx=0;exitDy=0;exitPerimeter=0;strokeColor=#ff8000;strokeWidth=1;endArrow=classic;endFill=1;" edge="1" parent="1" source="aFN2-VFNgICGjjfd_nI_-7" target="aFN2-VFNgICGjjfd_nI_-12">
          <mxGeometry relative="1" as="geometry" />
        </mxCell>
        <mxCell id="aFN2-VFNgICGjjfd_nI_-61" style="edgeStyle=none;rounded=0;orthogonalLoop=1;jettySize=auto;html=1;exitX=0.5;exitY=0.5;exitDx=0;exitDy=0;exitPerimeter=0;entryX=0;entryY=0.5;entryDx=0;entryDy=0;strokeColor=#ff8000;strokeWidth=1;endArrow=classic;endFill=1;" edge="1" parent="1" source="aFN2-VFNgICGjjfd_nI_-7" target="aFN2-VFNgICGjjfd_nI_-13">
          <mxGeometry relative="1" as="geometry" />
        </mxCell>
        <mxCell id="aFN2-VFNgICGjjfd_nI_-62" style="edgeStyle=none;rounded=0;orthogonalLoop=1;jettySize=auto;html=1;exitX=0.5;exitY=0.5;exitDx=0;exitDy=0;exitPerimeter=0;entryX=0;entryY=0.5;entryDx=0;entryDy=0;strokeColor=#ff8000;strokeWidth=1;endArrow=classic;endFill=1;" edge="1" parent="1" source="aFN2-VFNgICGjjfd_nI_-7" target="aFN2-VFNgICGjjfd_nI_-14">
          <mxGeometry relative="1" as="geometry" />
        </mxCell>
        <mxCell id="aFN2-VFNgICGjjfd_nI_-7" value="Courier" style="shape=umlActor;verticalLabelPosition=bottom;labelBackgroundColor=#ffffff;verticalAlign=top;html=1;strokeWidth=4;fillColor=#FF8000;strokeColor=#000066;fontColor=#000099;" vertex="1" parent="1">
          <mxGeometry x="820" y="850" width="30" height="65" as="geometry" />
        </mxCell>
        <mxCell id="aFN2-VFNgICGjjfd_nI_-59" style="edgeStyle=none;rounded=0;orthogonalLoop=1;jettySize=auto;html=1;exitX=0.5;exitY=0.5;exitDx=0;exitDy=0;exitPerimeter=0;strokeColor=#ff8000;strokeWidth=1;endArrow=classic;endFill=1;" edge="1" parent="1" source="aFN2-VFNgICGjjfd_nI_-8" target="aFN2-VFNgICGjjfd_nI_-11">
          <mxGeometry relative="1" as="geometry" />
        </mxCell>
        <mxCell id="aFN2-VFNgICGjjfd_nI_-8" value="Logistic coordinator" style="shape=umlActor;verticalLabelPosition=bottom;labelBackgroundColor=#ffffff;verticalAlign=top;html=1;strokeWidth=4;fillColor=#FF8000;strokeColor=#000066;fontColor=#000099;" vertex="1" parent="1">
          <mxGeometry x="820" y="680" width="30" height="60" as="geometry" />
        </mxCell>
        <mxCell id="aFN2-VFNgICGjjfd_nI_-9" value="Login" style="ellipse;whiteSpace=wrap;html=1;fillColor=#FF8000;strokeColor=#000066;fontColor=#000099;" vertex="1" parent="1">
          <mxGeometry x="910" y="435" width="100" height="55" as="geometry" />
        </mxCell>
        <mxCell id="aFN2-VFNgICGjjfd_nI_-10" value="View&amp;nbsp;Homepage" style="ellipse;whiteSpace=wrap;html=1;fillColor=#FF8000;strokeColor=#000066;fontColor=#000099;" vertex="1" parent="1">
          <mxGeometry x="952" y="522" width="100" height="55" as="geometry" />
        </mxCell>
        <mxCell id="aFN2-VFNgICGjjfd_nI_-11" value="Track Updates" style="ellipse;whiteSpace=wrap;html=1;fillColor=#FF8000;strokeColor=#000066;fontColor=#000099;" vertex="1" parent="1">
          <mxGeometry x="952" y="700" width="100" height="55" as="geometry" />
        </mxCell>
        <mxCell id="aFN2-VFNgICGjjfd_nI_-12" value="View Artwork Transport Details" style="ellipse;whiteSpace=wrap;html=1;fillColor=#FF8000;strokeColor=#000066;fontColor=#000099;" vertex="1" parent="1">
          <mxGeometry x="952" y="838" width="100" height="55" as="geometry" />
        </mxCell>
        <mxCell id="aFN2-VFNgICGjjfd_nI_-13" value="View Artwork Conditions" style="ellipse;whiteSpace=wrap;html=1;fillColor=#FF8000;strokeColor=#000066;fontColor=#000099;" vertex="1" parent="1">
          <mxGeometry x="952" y="948" width="100" height="55" as="geometry" />
        </mxCell>
        <mxCell id="aFN2-VFNgICGjjfd_nI_-14" value="View&amp;nbsp;Artwork Receipt" style="ellipse;whiteSpace=wrap;html=1;fillColor=#FF8000;strokeColor=#000066;fontColor=#000099;" vertex="1" parent="1">
          <mxGeometry x="952" y="1040" width="100" height="55" as="geometry" />
        </mxCell>
        <mxCell id="aFN2-VFNgICGjjfd_nI_-15" value="View Chat Forum" style="ellipse;whiteSpace=wrap;html=1;fillColor=#FF8000;strokeColor=#000066;fontColor=#000099;" vertex="1" parent="1">
          <mxGeometry x="952" y="1120" width="100" height="55" as="geometry" />
        </mxCell>
        <mxCell id="aFN2-VFNgICGjjfd_nI_-16" value="View Contacts List" style="ellipse;whiteSpace=wrap;html=1;fillColor=#FF8000;strokeColor=#000066;fontColor=#000099;" vertex="1" parent="1">
          <mxGeometry x="952" y="610" width="100" height="55" as="geometry" />
        </mxCell>
        <mxCell id="aFN2-VFNgICGjjfd_nI_-17" value="Update Step Completed - Pick-up or Drop-off" style="ellipse;whiteSpace=wrap;html=1;fillColor=#FF8000;strokeColor=#000066;fontColor=#000099;" vertex="1" parent="1">
          <mxGeometry x="930" y="1201" width="122" height="61" as="geometry" />
        </mxCell>
        <mxCell id="aFN2-VFNgICGjjfd_nI_-18" value="View Access Control" style="ellipse;whiteSpace=wrap;html=1;fillColor=#FF8000;strokeColor=#000066;fontColor=#000099;" vertex="1" parent="1">
          <mxGeometry x="1270" y="190" width="100" height="55" as="geometry" />
        </mxCell>
        <mxCell id="aFN2-VFNgICGjjfd_nI_-22" value="Verify Password" style="ellipse;whiteSpace=wrap;html=1;fillColor=#FF8000;strokeColor=#000066;fontColor=#000099;" vertex="1" parent="1">
          <mxGeometry x="1118" y="435" width="100" height="55" as="geometry" />
        </mxCell>
        <mxCell id="aFN2-VFNgICGjjfd_nI_-26" value="&amp;lt;&amp;lt;extend&amp;gt;&amp;gt;" style="rounded=0;orthogonalLoop=1;jettySize=auto;html=1;exitX=0;exitY=0.5;exitDx=0;exitDy=0;strokeColor=default;strokeWidth=1;endArrow=classic;endFill=1;entryX=0.917;entryY=0.779;entryDx=0;entryDy=0;entryPerimeter=0;dashed=1;" edge="1" parent="1" source="aFN2-VFNgICGjjfd_nI_-23" target="aFN2-VFNgICGjjfd_nI_-9">
          <mxGeometry relative="1" as="geometry" />
        </mxCell>
        <mxCell id="aFN2-VFNgICGjjfd_nI_-23" value="Display Login Error" style="ellipse;whiteSpace=wrap;html=1;fillColor=#FF8000;strokeColor=#000066;fontColor=#000099;" vertex="1" parent="1">
          <mxGeometry x="1118" y="512" width="100" height="55" as="geometry" />
        </mxCell>
        <mxCell id="aFN2-VFNgICGjjfd_nI_-25" value="&amp;lt;&amp;lt;include&amp;gt;&amp;gt;" style="endArrow=classic;dashed=1;html=1;rounded=0;entryX=0;entryY=0.5;entryDx=0;entryDy=0;exitX=1;exitY=0.5;exitDx=0;exitDy=0;strokeColor=default;strokeWidth=1;endFill=1;" edge="1" parent="1" source="aFN2-VFNgICGjjfd_nI_-9" target="aFN2-VFNgICGjjfd_nI_-22">
          <mxGeometry width="50" height="50" relative="1" as="geometry">
            <mxPoint x="990" y="520" as="sourcePoint" />
            <mxPoint x="1040" y="470" as="targetPoint" />
          </mxGeometry>
        </mxCell>
        <mxCell id="aFN2-VFNgICGjjfd_nI_-27" value="Upload&lt;br&gt;Transport Details" style="ellipse;whiteSpace=wrap;html=1;fillColor=#FF8000;strokeColor=#000066;fontColor=#000099;" vertex="1" parent="1">
          <mxGeometry x="1238" y="778.5" width="100" height="55" as="geometry" />
        </mxCell>
        <mxCell id="aFN2-VFNgICGjjfd_nI_-28" value="Download&lt;br&gt;Transport Details" style="ellipse;whiteSpace=wrap;html=1;fillColor=#FF8000;strokeColor=#000066;fontColor=#000099;" vertex="1" parent="1">
          <mxGeometry x="1238" y="838.5" width="100" height="55" as="geometry" />
        </mxCell>
        <mxCell id="aFN2-VFNgICGjjfd_nI_-29" value="Upload&lt;br&gt;Artwork Conditions" style="ellipse;whiteSpace=wrap;html=1;fillColor=#FF8000;strokeColor=#000066;fontColor=#000099;" vertex="1" parent="1">
          <mxGeometry x="1238" y="911" width="100" height="55" as="geometry" />
        </mxCell>
        <mxCell id="aFN2-VFNgICGjjfd_nI_-30" value="Download&lt;br&gt;Artwork Conditions" style="ellipse;whiteSpace=wrap;html=1;fillColor=#FF8000;strokeColor=#000066;fontColor=#000099;" vertex="1" parent="1">
          <mxGeometry x="1238" y="970.5" width="100" height="55" as="geometry" />
        </mxCell>
        <mxCell id="aFN2-VFNgICGjjfd_nI_-31" value="Upload&lt;br&gt;Artwork Receipt" style="ellipse;whiteSpace=wrap;html=1;fillColor=#FF8000;strokeColor=#000066;fontColor=#000099;" vertex="1" parent="1">
          <mxGeometry x="1238" y="1046" width="100" height="55" as="geometry" />
        </mxCell>
        <mxCell id="aFN2-VFNgICGjjfd_nI_-32" value="Download&lt;br&gt;Artwork Receipt" style="ellipse;whiteSpace=wrap;html=1;fillColor=#FF8000;strokeColor=#000066;fontColor=#000099;" vertex="1" parent="1">
          <mxGeometry x="1238" y="1105" width="100" height="55" as="geometry" />
        </mxCell>
        <mxCell id="aFN2-VFNgICGjjfd_nI_-33" value="Create Project" style="ellipse;whiteSpace=wrap;html=1;fillColor=#FF8000;strokeColor=#000066;fontColor=#000099;" vertex="1" parent="1">
          <mxGeometry x="1270" y="275" width="100" height="55" as="geometry" />
        </mxCell>
        <mxCell id="aFN2-VFNgICGjjfd_nI_-34" value="Register Contact" style="ellipse;whiteSpace=wrap;html=1;fillColor=#FF8000;strokeColor=#000066;fontColor=#000099;" vertex="1" parent="1">
          <mxGeometry x="910" y="190" width="100" height="55" as="geometry" />
        </mxCell>
        <mxCell id="aFN2-VFNgICGjjfd_nI_-35" value="Track Journey and Location" style="ellipse;whiteSpace=wrap;html=1;fillColor=#FF8000;strokeColor=#000066;fontColor=#000099;" vertex="1" parent="1">
          <mxGeometry x="1068" y="642" width="100" height="55" as="geometry" />
        </mxCell>
        <mxCell id="aFN2-VFNgICGjjfd_nI_-36" value="Track Temperature" style="ellipse;whiteSpace=wrap;html=1;fillColor=#FF8000;strokeColor=#000066;fontColor=#000099;" vertex="1" parent="1">
          <mxGeometry x="1068" y="701" width="100" height="55" as="geometry" />
        </mxCell>
        <mxCell id="aFN2-VFNgICGjjfd_nI_-37" value="Track Humidity" style="ellipse;whiteSpace=wrap;html=1;fillColor=#FF8000;strokeColor=#000066;fontColor=#000099;" vertex="1" parent="1">
          <mxGeometry x="1068" y="761" width="100" height="55" as="geometry" />
        </mxCell>
        <mxCell id="aFN2-VFNgICGjjfd_nI_-38" value="Add / Edit Chat Message" style="ellipse;whiteSpace=wrap;html=1;fillColor=#FF8000;strokeColor=#000066;fontColor=#000099;" vertex="1" parent="1">
          <mxGeometry x="1070" y="1138" width="100" height="55" as="geometry" />
        </mxCell>
        <mxCell id="aFN2-VFNgICGjjfd_nI_-39" value="Add / Update Step Completed" style="ellipse;whiteSpace=wrap;html=1;fillColor=#FF8000;strokeColor=#000066;fontColor=#000099;" vertex="1" parent="1">
          <mxGeometry x="1070" y="1219" width="100" height="55" as="geometry" />
        </mxCell>
        <mxCell id="aFN2-VFNgICGjjfd_nI_-40" value="Edit Departure Date and Time" style="ellipse;whiteSpace=wrap;html=1;fillColor=#FF8000;strokeColor=#000066;fontColor=#000099;" vertex="1" parent="1">
          <mxGeometry x="1270" y="435" width="100" height="55" as="geometry" />
        </mxCell>
        <mxCell id="aFN2-VFNgICGjjfd_nI_-41" value="Edit Arrival Date and Time" style="ellipse;whiteSpace=wrap;html=1;fillColor=#FF8000;strokeColor=#000066;fontColor=#000099;" vertex="1" parent="1">
          <mxGeometry x="1270" y="525.5" width="100" height="55" as="geometry" />
        </mxCell>
        <mxCell id="aFN2-VFNgICGjjfd_nI_-42" value="Use Against Departure Date and Time" style="ellipse;whiteSpace=wrap;html=1;fillColor=#FF8000;strokeColor=#000066;fontColor=#000099;" vertex="1" parent="1">
          <mxGeometry x="1190" y="1185.25" width="100" height="55" as="geometry" />
        </mxCell>
        <mxCell id="aFN2-VFNgICGjjfd_nI_-43" value="Use Against Arrival Date and Time" style="ellipse;whiteSpace=wrap;html=1;fillColor=#FF8000;strokeColor=#000066;fontColor=#000099;" vertex="1" parent="1">
          <mxGeometry x="1190" y="1252.75" width="100" height="55" as="geometry" />
        </mxCell>
        <mxCell id="aFN2-VFNgICGjjfd_nI_-44" value="Add User Details: Name, Surname, Institution, Institution Type, Email, Telephone, and Password" style="ellipse;whiteSpace=wrap;html=1;fillColor=#FF8000;strokeColor=#000066;fontColor=#000099;" vertex="1" parent="1">
          <mxGeometry x="1030" y="329.5" width="240" height="89.5" as="geometry" />
        </mxCell>
        <mxCell id="aFN2-VFNgICGjjfd_nI_-51" value="Create Contact" style="ellipse;whiteSpace=wrap;html=1;fillColor=#FF8000;strokeColor=#000066;fontColor=#000099;" vertex="1" parent="1">
          <mxGeometry x="1110" y="190" width="100" height="55" as="geometry" />
        </mxCell>
        <mxCell id="aFN2-VFNgICGjjfd_nI_-52" value="&amp;lt;&amp;lt;include&amp;gt;&amp;gt;" style="endArrow=classic;dashed=1;html=1;rounded=0;exitX=0.5;exitY=1;exitDx=0;exitDy=0;strokeColor=default;strokeWidth=1;endFill=1;entryX=0.464;entryY=-0.022;entryDx=0;entryDy=0;entryPerimeter=0;" edge="1" parent="1" source="aFN2-VFNgICGjjfd_nI_-51" target="aFN2-VFNgICGjjfd_nI_-44">
          <mxGeometry width="50" height="50" relative="1" as="geometry">
            <mxPoint x="1147.0000000000032" y="435" as="sourcePoint" />
            <mxPoint x="1333.0000000000023" y="397.5" as="targetPoint" />
          </mxGeometry>
        </mxCell>
        <mxCell id="aFN2-VFNgICGjjfd_nI_-53" value="&amp;lt;&amp;lt;include&amp;gt;&amp;gt;" style="endArrow=classic;dashed=1;html=1;rounded=0;exitX=0;exitY=0.5;exitDx=0;exitDy=0;strokeColor=default;strokeWidth=1;endFill=1;entryX=1;entryY=0.5;entryDx=0;entryDy=0;" edge="1" parent="1" source="aFN2-VFNgICGjjfd_nI_-33" target="aFN2-VFNgICGjjfd_nI_-51">
          <mxGeometry width="50" height="50" relative="1" as="geometry">
            <mxPoint x="1157.0000000000032" y="445" as="sourcePoint" />
            <mxPoint x="1159.0165165481394" y="507.5015029403353" as="targetPoint" />
          </mxGeometry>
        </mxCell>
        <mxCell id="aFN2-VFNgICGjjfd_nI_-55" value="&amp;lt;&amp;lt;include&amp;gt;&amp;gt;" style="endArrow=classic;dashed=1;html=1;rounded=0;exitX=1;exitY=0.5;exitDx=0;exitDy=0;strokeColor=default;strokeWidth=1;endFill=1;entryX=0;entryY=0.5;entryDx=0;entryDy=0;" edge="1" parent="1" source="aFN2-VFNgICGjjfd_nI_-34" target="aFN2-VFNgICGjjfd_nI_-51">
          <mxGeometry width="50" height="50" relative="1" as="geometry">
            <mxPoint x="1170" y="255" as="sourcePoint" />
            <mxPoint x="1169.3600000000001" y="367.0310000000002" as="targetPoint" />
          </mxGeometry>
        </mxCell>
      </root>
    </mxGraphModel>
  </diagram>
</mxfile>
